{"title":"Miracles From Heaven 2016 Movies HDRip XviD AAC New +Sample ☻rDX","uid":14947463,"size":739302048,"categoryP":"video","categoryS":"movies","magnet":"?xt=urn:btih:23ec6fa3c8771075c17e623488b3a64764e3f0e5&amp;dn=Miracles+From+Heaven+2016+Movies+HDRip+XviD+AAC+New+%2BSample+%E2%98%BBrDX&amp;tr=udp%3A%2F%2Ftracker.leechers-paradise.org%3A6969&amp;tr=udp%3A%2F%2Fzer0day.ch%3A1337&amp;tr=udp%3A%2F%2Fopen.demonii.com%3A1337&amp;tr=udp%3A%2F%2Ftracker.coppersurfer.tk%3A6969&amp;tr=udp%3A%2F%2Fexodus.desync.com%3A6969","seeders":1,"leechers":5,"uploader":"basicssom","files":2,"time":1466062444,"description":"----------------------------------------------------------------\r\nMiracles From Heaven 2016 English Movies HDRip XviD AAC New Source with Sample ☻rDX☻\r\n\r\nSCREEN SHOTS &amp; POSTER:\r\n  \nhttp://mobileshosting.com/2016/6/accessory/index.htm  \nhttp://mobileshosting.com/2016/6/accessory/1.html  \nhttp://mobileshosting.com/2016/6/accessory/2.html  \nhttp://mobileshosting.com/2016/6/accessory/3.html  \nhttp://mobileshosting.com/2016/6/accessory/4.html  \nhttp://mobileshosting.com/2016/6/accessory/5.html  \nhttp://mobileshosting.com/2016/6/accessory/6.html  \nhttp://mobileshosting.com/2016/6/accessory/7.html  \nhttp://mobileshosting.com/2016/6/accessory/8.html  \nhttp://mobileshosting.com/2016/6/accessory/9.html  \nhttp://mobileshosting.com/2016/6/accessory/10.html\r\n\r\nFormat                                   : Matroska\r\nFormat version                           : Version 4 / Version 2\r\nFile size                                : 693 MiB\r\nDuration                                 : 1h 49mn\r\nOverall bit rate                         : 887 Kbps\r\nMovie name                               : Miracles From Heaven 2016 English Movies HDRip XviD AAC New Source ☻rDX☻\r\n\r\nVideo\r\nID                                       : 1\r\nFormat                                   : MPEG-4 Visual\r\nFormat profile                           : Advanced   \r\nFormat settings, BVOP                    : Yes\r\nFormat settings, QPel                    : No\r\nFormat settings, GMC                     : No warppoints\r\nFormat settings, Matrix                  : Default (H.263)\r\nCodec ID                                 : V_MS/VFW/FOURCC / XVID\r\nCodec ID/Hint                            : XviD\r\nDuration                                 : 1h 49mn\r\nBit rate                                 : 757 Kbps\r\nWidth                                    : 640 pixels\r\nHeight                                   : 344 pixels\r\nDisplay aspect ratio                     : 1.85:1\r\nFrame rate mode                          : Constant\r\nFrame rate                               : 23.976 fps\r\nColor space                              : YUV\r\nChroma subsampling                       : 4:2:0\r\nBit depth                                : 8 bits\r\nScan type                                : Progressive\r\nCompression mode                         : Lossy\r\nBits/(Pixel*Frame)                       : 0.143\r\nStream size                              : 592 MiB (85%)\r\nTitle                                    : ☻rDX☻\r\nWriting library                          : XviD 65\r\nDefault                                  : Yes\r\nForced                                   : No\r\n\r\nAudio\r\nID                                       : 2\r\nFormat                                   : MPEG Audio\r\nFormat version                           : Version 1\r\nFormat profile                           : Layer 3\r\nMode                                     : Joint stereo\r\nMode extension                           : MS Stereo\r\nCodec ID                                 : A_MPEG/L3\r\nCodec ID/Hint                            : MP3\r\nDuration                                 : 1h 49mn\r\nBit rate mode                            : Constant\r\nBit rate                                 : 112 Kbps\r\nChannel(s)                               : 2 channels\r\nSampling rate                            : 48.0 KHz\r\nCompression mode                         : Lossy\r\nStream size                              : 87.3 MiB (13%)\r\nTitle                                    : ☻rDX☻\r\nWriting library                          : LAME3.99r\r\nEncoding settings                        : -m j -V 4 -q 3 -lowpass 15.6 -b 112\r\nDefault                                  : Yes\r\nForced                                   : No\r\n\r\nIMDB \nhttp://www.imdb.com/title/tt4257926/","torrent":{"xt":"urn:btih:23ec6fa3c8771075c17e623488b3a64764e3f0e5","amp;dn":"Miracles+From+Heaven+2016+Movies+HDRip+XviD+AAC+New+%2BSample+%E2%98%BBrDX","amp;tr":["udp%3A%2F%2Ftracker.leechers-paradise.org%3A6969","udp%3A%2F%2Fzer0day.ch%3A1337","udp%3A%2F%2Fopen.demonii.com%3A1337","udp%3A%2F%2Ftracker.coppersurfer.tk%3A6969","udp%3A%2F%2Fexodus.desync.com%3A6969"],"infoHash":"23ec6fa3c8771075c17e623488b3a64764e3f0e5","infoHashBuffer":{"type":"Buffer","data":[35,236,111,163,200,119,16,117,193,126,98,52,136,179,166,71,100,227,240,229]},"announce":[],"urlList":[]}}